<svg width="200" height="200" viewBox="0 0 200 200" xmlns="http://www.w3.org/2000/svg">
  <defs>
    <linearGradient id="gradient" x1="0%" y1="0%" x2="100%" y2="100%">
      <stop offset="0%" style="stop-color:#808080;stop-opacity:1" /> <stop offset="100%" style="stop-color:#A9A9A9;stop-opacity:1" /> </linearGradient>
    <linearGradient id="textGradient" x1="0%" y1="0%" x2="100%" y2="100%">
      <stop offset="0%" style="stop-color:#6A82FB;stop-opacity:1" />
      <stop offset="100%" style="stop-color:#FC5C7D;stop-opacity:1" />
    </linearGradient>
  </defs>

  <g transform="translate(100, 80)">
    <circle cx="0" cy="0" r="60" fill="url(#gradient)" stroke="#333" stroke-width="2"/>

    <path d="M -40 -60 Q -50 -80 -60 -60 L -45 -45 Z" fill="url(#gradient)" stroke="#333" stroke-width="2"/>
    <path d="M 40 -60 Q 50 -80 60 -60 L 45 -45 Z" fill="url(#gradient)" stroke="#333" stroke-width="2"/>
    <circle cx="-50" cy="-55" r="5" fill="#333"/>
    <circle cx="50" cy="-55" r="5" fill="#333"/>

    <circle cx="0" cy="20" r="30" fill="#FFF" stroke="#333" stroke-width="2"/>

    <path d="M -10 10 L 10 10 L 0 25 Z" fill="#333"/>

    <circle cx="-25" cy="-10" r="8" fill="#333"/>
    <circle cx="25" cy="-10" r="8" fill="#333"/>
    <circle cx="-25" cy="-10" r="3" fill="#FFF"/>
    <circle cx="25" cy="-10" r="3" fill="#FFF"/>

    <path d="M -45 -40 Q -50 -20 -40 0" stroke="#333" stroke-width="3" stroke-linecap="round"/>
    <path d="M -30 -50 Q -35 -30 -30 -10" stroke="#333" stroke-width="3" stroke-linecap="round"/>
    <path d="M 45 -40 Q 50 -20 40 0" stroke="#333" stroke-width="3" stroke-linecap="round"/>
    <path d="M 30 -50 Q 35 -30 30 -10" stroke="#333" stroke-width="3" stroke-linecap="round"/>
  </g>
</svg>
